<?xml version="1.0" encoding="utf-8"?>
<!-- Generator: Adobe Illustrator 19.1.0, SVG Export Plug-In . SVG Version: 6.00 Build 0)  -->
<svg version="1.1" id="Layer_1" xmlns="http://www.w3.org/2000/svg" xmlns:xlink="http://www.w3.org/1999/xlink" x="0px" y="0px"
	 viewBox="0 0 536.7 216" style="enable-background:new 0 0 536.7 216;" xml:space="preserve">
<style type="text/css">
	.st0{fill:#AE0023;}
</style>
<g>
	<path class="st0" d="M57.5,173.6c20.7,0,44.8-14.7,65.7-28.8c0-0.4-0.7-1.8-1.3-1.8c-21.5,13.4-41.3,25.3-61.5,25.3
		c-20.9,0-30.1-16.7-30.1-33.4c0-21.3,8.8-42.4,23.3-58.4C68.9,59.5,92.4,45.7,108,45.7c10.8,0,18.7,5.7,18.7,16.5
		c0,9-5.5,15.6-14.5,18.2c-0.4,0.4-0.7,0.7-0.7,0.9c0.2,0.7,1.5,1.1,3.1,1.1c11.2,0,18.7-11.6,18.7-21.1c0-14.7-13.4-19.8-24.4-19.8
		c-22.9,0-46.1,14.9-60.4,30.3c-17.1,18.5-28.8,40.2-28.8,64.4C19.7,163,36.9,173.6,57.5,173.6 M173.3,94.7
		c-6.6,8.8-18.2,23.3-34.3,37.1c8.3-19.3,16.5-35.8,25.7-49c11.6-16.9,20.4-24.6,23.3-24.6c1.1,0,1.8,1.5,1.8,2.9
		C189.3,70.3,181.2,84.2,173.3,94.7 M175.5,145c0-0.7-0.4-1.8-1.3-1.8c-9.2,5.9-23.7,13.8-31.9,13.8c-1.5,0-6.4-0.7-6.4-7
		c0-5.9,1.3-11.9,2.4-14.7c15.6-12.1,26.8-25.1,36.5-37.1c8.8-11,19.3-28.1,19.3-39.6c0-2.2-1.3-5.1-4.4-5.1c-6.6,0-17.4,11-25,20.7
		c-9,11.2-28.1,38-36,63.9c-2.9,2.4-8.1,5.7-9.4,6.6c0,0.7,0.9,1.5,1.5,1.5c0.9-0.4,4-2.2,6.8-4.2c-1.3,3.1-1.5,8.8-1.5,9.9
		c0,4,1.5,10.5,9.9,10.5C146.3,162.6,164.3,152.3,175.5,145 M190,160.2c10.1,0,25.5-8.6,35.8-15.2c0-0.7-0.4-1.8-1.3-1.8
		c-7.7,4.8-21.8,11.9-29.7,11.9c-4.8,0-5.9-3.1-5.9-6.2c0-6.6,5.9-14.1,7.7-16.3c1.8-2.2,2.2-2.6,2.2-3.1c0-0.4-2.4-0.9-3.5-0.9
		c-1.1,0-3.5,0-4.4,0.4c-0.7,0.4-2,2.6-3.1,4c-2.4,2.4-10.5,8.3-16.5,11.9c0,0.4,0.7,1.8,1.3,1.8c3.5-2,9.2-5.7,10.5-6.6
		c0,0,0.2,0.4,0.2,0.7c-1.5,3.1-3.1,6.6-3.1,9.9C180.3,155.8,183.2,160.2,190,160.2 M200.3,114.3c0,2.6,2.2,4.4,4.4,4.4
		c3.3,0,6.8-3.1,6.8-6.8c0-2.9-1.5-4.8-4.4-4.8C203.6,107,200.3,110.5,200.3,114.3 M264,153.8c0-5.5,4-14.3,4-18.2
		c0-3.1-2.2-4.8-5.3-4.8c-3.7,0-7.3,1.8-11.2,4.6c-4,2.9-8.8,7.5-13.8,11.6c2-4,11-16.3,11.9-17.6c-0.7-0.9-4-1.1-5.3-1.1
		c-0.9,0-2,0-2.2,0.2l-4,4.2c-4,4.2-14.3,11-16,12.1c0,0.7,0.9,1.5,1.5,1.5c1.3-0.7,7.3-4.4,10.8-6.8l-8.1,13.8
		c-2,3.5-2.9,4.4-2.9,4.8c0,0.4,1.5,1.3,2.4,1.8c0.9,0.4,2.9,1.5,3.3,1.5c0.4,0,3.1-3.5,4-4.6c5.1-6.6,19.6-21.8,25.3-21.8
		c1.1,0,1.8,0.9,1.8,2.4c0,4-5.1,15.4-5.1,20c0,4,2.6,5.3,5.3,5.3c7.3,0,25.5-12.1,34.5-17.6c0-0.7-0.4-1.8-1.3-1.8
		c-8.3,5.1-23.3,13.2-26.8,13.2C264.9,156.7,264,155.8,264,153.8 M365.1,111.4c-7.5,0-21.1-0.9-36.7-1.3c4.2-7.3,9.4-16.3,11-18.5
		c0.4-0.7,0.9-1.3,0.9-1.8c0-0.4-0.7-0.4-0.7-0.4c-0.4,0-2,0.7-2.6,0.9l-4,1.1c-0.7,0.2-1.5,1.1-2.2,2.2l-9.9,16.3h-7.3
		c-20.2,0-33,4.2-33,7.5c0,1.3,1.3,2.2,2.6,2.2c1.3,0,3.1,0,3.7-1.1c3.3-4.4,19.6-5.9,25.9-5.9h6.6l-11.4,20.4
		c-3.3,2.9-11.4,8.6-17.1,12.1c0,0.4,0.2,2,0.9,2c3.1-1.8,11.2-6.8,13.8-8.6c-3.3,7.5-7.5,15.8-7.5,24.2c0,7.9,6.6,10.5,7.7,11.4
		c0.4,0.2,0.7,0.4,0.9,0.4c0.2,0,0.9-0.4,0.9-1.1c-1.1-1.8-1.5-6.4-1.5-9c0-11.6,14.1-40,20.7-51.6c7.9,0.4,19.3,1.5,37.6,1.5
		c17.4,0,27.5-5.9,27.5-13c0-3.7-2-5.9-5.1-5.9c-0.9,0-1.8,0.4-1.8,0.9c0.2,1.5,2,1.3,2,4C387.1,109,371.7,111.4,365.1,111.4
		 M362.3,130.5c0.2,2.9,2.4,4.2,5.3,5.1c-0.4,11.2-8.8,21.3-16.9,21.3c-4,0-4.8-4.2-4.8-6.8C345.8,141.7,355.9,130.5,362.3,130.5
		 M371.7,136.5c1.1,0.2,2.2,0.2,3.1,0.2c5.9,0,12.5-1.3,18-2.9c5.7-1.5,13-4,15.8-4c1.3,0,2,1.1,2,1.8c0,1.8-2.4,6.2-4,8.8l-7.7,13
		c-2,3.5-4,6.6-4,7c0,0.4,1.3,1.1,2.2,1.5c0.9,0.4,2.9,1.5,3.3,1.5c0.4,0,1.8-2.2,2.4-3.3c5.3-7.7,23.1-25,28.3-25
		c1.1,0,1.8,0.9,1.8,2.4c0,4-5.1,14.9-5.1,19.6c0,4.8,2.6,5.7,5.3,5.7c9.4,0,26.8-11.4,37.4-17.8c0-0.7-0.4-1.8-1.3-1.8
		c-7.9,4.8-23.5,13.6-29.7,13.6c-1.8,0-2.6-1.1-2.6-3.1c0-5.5,4-14.3,4-18.2c0-3.1-2.2-4.8-5.3-4.8c-3.7,0-7.3,1.8-11.2,4.6
		c-3.5,2.6-9,7.5-14.1,11.6c1.8-2.6,8.3-12.5,8.3-16c0-3.5-3.7-4.4-5.7-4.4c-5.5,0-14.3,3.5-19.8,4.8c-4,1.1-9.9,2.4-14.9,2.4
		c-2.6,0-5.1-0.4-6.2-2c-0.7-3.1-3.1-6.6-5.9-6.6c-0.7,0-1.8,0.2-2.6,0.9c-0.4-0.4-1.8-0.9-2.9-0.9c-9.7,0-23.1,13.6-23.1,25.5
		c0,5.3,3.1,10.8,10.3,10.8C359.6,161.5,370,148.1,371.7,136.5 M488.2,158.6c4.4-3.1,6.2-7.5,6.2-11.6c0-5.5-2.2-11.2-2.9-16.5
		c4.6-4.6,7.5-8.6,7.7-10.8c0-0.9-0.9-2-2.2-2c-4.6,0-8.8,4.8-8.8,11.4c-6.4,5.7-14.3,11.4-21.8,15.8c0,0,0.2,1.8,1.3,1.8
		c7-4.2,15.4-9.9,20.2-13.6c-0.2,8.1-1.5,17.6-5.1,21.8c-2,2.2-4.6,2.9-6.6,2.9c-3.5,0-5.7-3.7-5.9-4.4c-0.2-0.4-0.7-1.3-1.5-1.3
		c-0.7,0-2.4,0.4-2.4,2.4c0.9,5.3,7,8.3,13.4,8.3c11.9,0,24.8-7.9,29.2-11.2c3.7-2.6,7.9-7.2,7.9-10.8c0-2.9-1.8-4.4-4.2-4.4
		c-0.9,0-2,0.7-2,2c0,1.1,1.3,1.5,1.5,2.6c0,2.6-3.1,6.8-8.3,10.5C500.7,154,494.3,157.5,488.2,158.6"/>
</g>
</svg>
