<svg id="EPM_Logo" data-name="EPM Logo" xmlns="http://www.w3.org/2000/svg" xmlns:xlink="http://www.w3.org/1999/xlink" width="174.42" height="79.539" viewBox="0 0 174.42 79.539">
  <defs>
    <clipPath id="clip-path">
      <rect id="Rectangle_37" data-name="Rectangle 37" width="174.42" height="79.539" fill="none"/>
    </clipPath>
  </defs>
  <g id="Group_187" data-name="Group 187" clip-path="url(#clip-path)">
    <path id="Path_1372" data-name="Path 1372" d="M358.456,150a16.383,16.383,0,0,0-13.021,6.426A16.411,16.411,0,0,0,316,166.413v15.976l6.784-2.81V166.413a9.629,9.629,0,1,1,19.258,0v15.976l6.784-2.81V166.413a9.629,9.629,0,1,1,19.258,0v15.976l6.784-2.81V166.413A16.414,16.414,0,0,0,358.456,150" transform="translate(-246.845 -117.173)" fill="#242e54"/>
    <path id="Path_1373" data-name="Path 1373" d="M174.413,150A16.414,16.414,0,0,0,158,166.413v30.3l6.784-2.81V166.413a9.634,9.634,0,1,1,5.91,8.88l-2.6,6.27A16.414,16.414,0,1,0,174.413,150" transform="translate(-123.422 -117.173)" fill="#242e54"/>
    <path id="Path_1374" data-name="Path 1374" d="M28.915,168.164h3.818a16.641,16.641,0,0,0,.094-1.751,16.412,16.412,0,1,0-1.934,7.73l-6.322-2.618a9.627,9.627,0,0,1-17.625-3.361H28.915Zm-12.5-11.38a9.626,9.626,0,0,1,8.576,5.252H7.837a9.626,9.626,0,0,1,8.576-5.252" transform="translate(0 -117.173)" fill="#242e54"/>
    <path id="Path_1375" data-name="Path 1375" d="M595.664,53.733l3.58,8.642,5.063-12.222Z" transform="translate(-465.305 -39.177)" fill="#1499bf"/>
    <path id="Path_1376" data-name="Path 1376" d="M595.664,114.642l8.642,3.58L599.244,106Z" transform="translate(-465.305 -82.802)" fill="#218c8c"/>
    <path id="Path_1377" data-name="Path 1377" d="M638.733,10.663l-3.58,8.642,12.222-5.063Z" transform="translate(-496.153 -8.33)" fill="#1134a5"/>
    <path id="Path_1378" data-name="Path 1378" d="M699.642,10.663,691,14.243l12.222,5.063Z" transform="translate(-539.777 -8.33)" fill="#611f70"/>
    <path id="Path_1379" data-name="Path 1379" d="M699.642,170.489l3.58-8.642L691,166.909Z" transform="translate(-539.777 -126.427)" fill="#e5c738"/>
    <path id="Path_1380" data-name="Path 1380" d="M638.733,170.489l8.642-3.58-12.222-5.063Z" transform="translate(-496.153 -126.427)" fill="#0d6e24"/>
    <path id="Path_1381" data-name="Path 1381" d="M755.489,114.642,751.909,106l-5.063,12.222Z" transform="translate(-583.402 -82.802)" fill="#eb6f4a"/>
    <path id="Path_1382" data-name="Path 1382" d="M734.07,145.619l-3.58,8.642,2.334.967,12.222-12.222v-1.933Z" transform="translate(-570.625 -110.2)" fill="#db9c2e"/>
    <path id="Path_1383" data-name="Path 1383" d="M660.153,184.979l-8.642,3.58.967,2.334h17.284l1.367-1.367Z" transform="translate(-508.93 -144.497)" fill="#aace11"/>
    <path id="Path_1384" data-name="Path 1384" d="M590.913,75.152l-3.58-8.642L585,67.477V84.761l1.367,1.367Z" transform="translate(-456.975 -51.954)" fill="#33b5a8"/>
    <path id="Path_1385" data-name="Path 1385" d="M751.909,62.375l3.58-8.642-8.642-3.58Z" transform="translate(-583.402 -39.177)" fill="#d7024d"/>
    <path id="Path_1386" data-name="Path 1386" d="M774.526,55.847,769.98,66.823l3.58,8.642,2.333-.967V57.214Z" transform="translate(-601.473 -43.625)" fill="#eb1f17"/>
    <path id="Path_1387" data-name="Path 1387" d="M604.435,157.711h0l-3.58-8.642-8.642-3.58-.967,2.334,12.222,12.222H605.4Z" transform="translate(-461.855 -113.65)" fill="#3b9645"/>
    <path id="Path_1388" data-name="Path 1388" d="M595.976,15.855l3.58-8.642-2.334-.967L585,18.468V20.4Z" transform="translate(-456.975 -4.879)" fill="#26529e"/>
    <path id="Path_1389" data-name="Path 1389" d="M640.847,1.367l10.976,4.546,8.642-3.58L659.5,0H642.214Z" transform="translate(-500.6 0)" fill="#a621a3"/>
    <path id="Path_1390" data-name="Path 1390" d="M726.073,0l4.546,10.976,8.642,3.58.967-2.334L728.006,0Z" transform="translate(-567.175 0)" fill="#a31457"/>
  </g>
</svg>
