<svg width="140" height="27" viewBox="0 0 140 27" fill="none" xmlns="http://www.w3.org/2000/svg">
<path fill-rule="evenodd" clip-rule="evenodd" d="M34.6121 0.756977L34.8756 0.189717L34.9627 0.000976562L46.8201 26.517H42.084C42.084 26.517 40.2993 22.4622 40.2505 22.3543L29.3502 22.3201C29.3015 22.4259 27.3467 26.517 27.3467 26.517H22.6717L34.6121 0.756977ZM0 14.3028C0 10.7685 1.232 7.73001 3.66385 5.26394C6.1237 2.78957 9.15807 1.53579 12.684 1.53372C14.5787 1.53372 16.3748 1.92987 18.0247 2.71387C19.5896 3.49372 21.1493 4.76512 22.6572 6.49905L22.8947 6.76868L19.7836 9.76572L19.5264 9.42142C17.6721 6.94083 15.3917 5.6829 12.7452 5.6829C10.3641 5.6829 8.33881 6.51979 6.72519 8.16557C5.11467 9.78335 4.29748 11.8419 4.29748 14.2831C4.29748 16.7989 5.20904 18.9041 7.00207 20.526C8.68519 22.0401 10.5301 22.8065 12.4849 22.8065C14.1421 22.8065 15.6489 22.2413 16.967 21.1244C18.1409 20.1257 18.8461 18.9124 19.0877 17.5165H11.9684V13.3684H23.8073V14.534C23.8073 16.3509 23.5874 17.9863 23.1581 19.3956C22.7401 20.7137 22.0194 21.9623 21.0176 23.1082C18.759 25.6666 15.848 26.9629 12.3625 26.9629C8.96726 26.9629 6.01896 25.7112 3.59748 23.2472C1.20919 20.7759 0 17.7675 0 14.3028ZM33.9401 11.9767C33.9401 11.9767 34.7407 10.1816 34.888 9.84764L35.2845 10.7731L35.2867 10.7784C36.2089 12.9312 38.3925 18.0286 38.4679 18.202L37.4784 18.198L37.4646 18.1979L37.4559 18.1979C35.4996 18.1898 31.3955 18.173 31.1806 18.173L33.9401 11.9767ZM62.2481 2.03668H66.4471H66.5456V17.697C66.5456 20.2875 65.7295 22.457 64.1159 24.1442C62.4597 25.8595 59.4865 26.965 56.5403 26.965C53.592 26.965 50.624 25.8564 48.9782 24.1442C47.3677 22.458 46.5505 20.2916 46.5505 17.6991V2.03668H50.8459V16.689C50.8459 18.6334 51.1581 20.0614 51.771 20.9294C52.6732 22.1645 54.8541 22.8106 56.5393 22.8106C58.1809 22.8106 60.3784 22.2226 61.3231 20.9294C61.935 20.0873 62.2481 18.6625 62.2481 16.689V2.03668ZM72.0481 6.0272L72.0471 6.03031C70.0404 8.46009 69.021 11.2684 69.021 14.3722C69.021 17.837 70.2396 20.8351 72.6372 23.2939C75.0877 25.7299 78.0879 26.9629 81.5536 26.9629C83.8548 26.9629 86.0834 26.3552 88.172 25.1553L88.3618 25.0465V19.7202L86.1073 21.4313C85.6498 21.7428 85.1628 22.0085 84.6533 22.2247C83.8185 22.6156 82.7939 22.8106 81.6024 22.8106C79.2908 22.8106 77.3111 21.9851 75.7213 20.3601C74.1295 18.7319 73.3216 16.7025 73.3216 14.3287C73.3216 11.9238 74.1305 9.85698 75.7224 8.20083C77.3049 6.53638 79.2763 5.69016 81.5858 5.69016C83.6868 5.69016 85.7598 6.53535 87.7427 8.20083L88.3649 8.72557V3.43875L88.1761 3.32779C86.1425 2.13935 84.0093 1.53579 81.8326 1.53579C77.8452 1.53579 74.5547 3.04675 72.0481 6.0272ZM107.524 2.03668H111.726H111.822V26.517H107.524V14.0601H96.2868V26.517H91.9914V2.03668H96.2868V9.9109H107.524V2.03668ZM118.355 5.24942C115.856 7.71653 114.592 10.7136 114.592 14.1503C114.592 18.0599 115.983 21.2654 118.72 23.6796C121.205 25.8585 124.047 26.9629 127.173 26.9629C130.702 26.9629 133.757 25.7205 136.251 23.2659C138.737 20.8226 139.999 17.7996 139.999 14.2913C139.999 10.8017 138.743 7.77253 136.269 5.28468C133.803 2.79994 130.803 1.53787 127.356 1.53787C123.869 1.53579 120.84 2.78646 118.355 5.24942ZM118.885 14.1866C118.885 16.6879 119.737 18.7755 121.413 20.3808C123.085 21.9945 125.037 22.8106 127.219 22.8106C129.591 22.8106 131.62 21.981 133.247 20.3445C134.877 18.6842 135.705 16.633 135.705 14.2488C135.705 11.8377 134.887 9.78542 133.276 8.1552C131.678 6.51772 129.671 5.68705 127.312 5.68705C124.958 5.68705 122.946 6.51979 121.325 8.15831C119.707 9.77298 118.885 11.8025 118.885 14.1866Z" fill="white"/>
</svg>
