<svg xmlns="http://www.w3.org/2000/svg" viewBox="0 0 188.35 64.17"><defs><style>.cls-1{fill:#6d6365;}.cls-2{fill:#386680;}</style></defs><g id="Layer_2" data-name="Layer 2"><path class="cls-1" d="M347,262.9c0,8.4,18.36,6.34,18.36,18.86,0,6-5.28,9.35-11.32,9.35a16.94,16.94,0,0,1-12.32-5.33l.85-.75a16.72,16.72,0,0,0,10.77,4.27c5.08,0,8.4-2.71,8.4-6.58,0-10-18.41-8.3-18.41-19,0-5.49,4.22-8.81,11.11-8.81a13.35,13.35,0,0,1,9.81,4.18l-.9.8a12.74,12.74,0,0,0-8.65-3.27C350.05,256.66,347,259,347,262.9Z" transform="translate(-341.75 -254.95)"/><path class="cls-1" d="M373.39,290.61v-35.2h4.37V271.6h18.46V255.41h4.32v35.2h-4.32V273.16H377.76v17.45Z" transform="translate(-341.75 -254.95)"/><path class="cls-1" d="M429.06,279.85h-16.4l-4.27,10.76h-2.11l14.28-35.2h3.32l14,35.2h-4.58Zm-15.69-1.71h15l-7.45-19Z" transform="translate(-341.75 -254.95)"/><path class="cls-1" d="M447.72,255.41,465.42,281a39.47,39.47,0,0,1,2.62,4.57V255.41h2.11v35.2h-3.22l-17-24.39a42.26,42.26,0,0,1-4.17-7v31.38h-2.11v-35.2Z" transform="translate(-341.75 -254.95)"/><path class="cls-1" d="M480.87,255.41h4.32v33.64h17.25v1.56H480.87Z" transform="translate(-341.75 -254.95)"/><path class="cls-1" d="M504.8,255.41l11.57,19.16,11.52-19.16h2.21l-12.52,20.67v14.53h-4.33V276.73l-13.12-21.32Z" transform="translate(-341.75 -254.95)"/><path class="cls-1" d="M390.38,318.9V303.3h1.94v7.17h8.18V303.3h1.92v15.6H400.5v-7.73h-8.18v7.73Z" transform="translate(-341.75 -254.95)"/><path class="cls-1" d="M416.17,319.12c-4.74,0-7.55-3.14-7.55-8s2.81-8,7.55-8,7.58,3.17,7.58,8S420.92,319.12,416.17,319.12Zm0-.69c3.82,0,5.51-2.87,5.51-7.31s-1.69-7.33-5.51-7.33-5.5,3-5.5,7.29C410.67,315.6,412.38,318.43,416.17,318.43Z" transform="translate(-341.75 -254.95)"/><path class="cls-1" d="M444.35,305.37l-5.44,13.53H437.4l-5.58-13.67-.93,13.67H430l1-15.6h2l5.62,14.06,5.64-14.06h2l1.25,15.6h-1.92Z" transform="translate(-341.75 -254.95)"/><path class="cls-1" d="M454.7,303.3h9.78V304h-7.87v6.55h6.22v.69h-6.22v7h8.12v.69h-10Z" transform="translate(-341.75 -254.95)"/><path class="cls-1" d="M471.59,306.62c0,3.72,8.14,2.81,8.14,8.36,0,2.65-2.34,4.14-5,4.14a7.52,7.52,0,0,1-5.46-2.36l.38-.33a7.39,7.39,0,0,0,4.77,1.89c2.25,0,3.72-1.2,3.72-2.92,0-4.44-8.15-3.68-8.15-8.4,0-2.43,1.87-3.91,4.92-3.91a5.9,5.9,0,0,1,4.35,1.86l-.4.35a5.67,5.67,0,0,0-3.84-1.45C472.93,303.85,471.59,304.88,471.59,306.62Z" transform="translate(-341.75 -254.95)"/><rect class="cls-2" x="149.56" y="55.25" width="26.95" height="2.27"/><rect class="cls-2" x="9.68" y="55.25" width="26.95" height="2.27"/></g></svg>