<svg xmlns="http://www.w3.org/2000/svg" width="195.399" height="47.892" viewBox="0 0 195.399 47.892"><g id="TheBreatheCo_Logo_Green" transform="translate(-63 -35)"><path id="Path_14700" data-name="Path 14700" d="M0,0V9.656H8.461v37.8h8.363V9.656h176.82V0Z" transform="translate(63 35)" fill="#30664d"></path><path id="Path_14701" data-name="Path 14701" d="M37.165,17.01v9.575h.108a3.835,3.835,0,0,1,3.656-2.215c3.379,0,4.152,1.161,4.152,5.7V52.879H39.709V30.847c0-1.273-.386-1.937-1.161-1.937-.886,0-1.383.222-1.383,1.937V52.879H31.849V17.01Z" transform="translate(52.856 29.582)" fill="#30664d"></path><path id="Path_14702" data-name="Path 14702" d="M62.48,45.613h5.372V51.4c0,4.148-3.71,5.311-6.645,5.311S54.618,55.6,54.618,51.4V33.126c0-2.713,1.825-5.314,6.589-5.314s6.645,2.6,6.645,5.314v9.831H59.934v8.327c0,.5-.224,1.549,1.273,1.549.773,0,1.274-.166,1.274-1.549Zm0-6.365V33.233c0-1.381-.444-1.547-1.274-1.547s-1.273.166-1.273,1.547v6.015Z" transform="translate(45.604 26.142)" fill="#30664d"></path><path id="Path_14703" data-name="Path 14703" d="M84.868,52.834V17.008h8.3c3.377,0,6.921,1.439,6.921,7.087v4.419c0,3.984-2.939,4.647-5.482,5.37,2.767.553,5.648.883,5.648,6.143v4.506c0,4.428-2,8.3-7.141,8.3Zm5.863-31.34V31.5h1.33c.778,0,2.1.222,2.1-2.932V24.427c0-1.22.113-2.932-2.1-2.932Zm0,14.711V48.129c2.273,0,3.6-.054,3.6-3.1V39.307c0-1.493-.055-3.1-2.437-3.1Z" transform="translate(35.969 29.583)" fill="#30664d"></path><path id="Path_14704" data-name="Path 14704" d="M111.839,56.362V28.2h5.311v1.827h.112a3.829,3.829,0,0,1,3.656-2.215c3.155,0,4.15,1,4.15,6.031V43H119.7V34.286c0-1.271-.388-1.937-1.164-1.937-.885,0-1.385.221-1.385,1.937V56.362Z" transform="translate(27.379 26.143)" fill="#30664d"></path><path id="Path_14705" data-name="Path 14705" d="M142.854,45.656h5.372v5.783c0,4.147-3.71,5.311-6.643,5.311s-6.591-1.107-6.591-5.311V33.124c0-2.711,1.827-5.312,6.591-5.312s6.643,2.6,6.643,5.312V43h-7.918v8.327c0,.5-.22,1.549,1.276,1.549.774,0,1.271-.166,1.271-1.549Zm0-6.362v-6.06c0-1.381-.442-1.547-1.271-1.547s-1.276.166-1.276,1.547v6.06Z" transform="translate(20.005 26.142)" fill="#30664d"></path><path id="Path_14706" data-name="Path 14706" d="M171.382,56.363h-5.038a5.1,5.1,0,0,1-.334-2.156h-.11c-.778,1.161-1.439,2.544-4.154,2.544-2.381,0-3.6-1.217-3.6-3.654V44.218c0-1.715-.11-2.932,3.769-4.926,3.488-1.715,3.927-1.739,3.927-4.452,0-1.33.168-3.152-1.052-3.152-.829,0-1.273.329-1.273,3.649v2.4h-5.372V33.125c0-2.71,1.829-5.313,6.589-5.313s6.647,2.6,6.647,5.313ZM166.01,41.728c-.888.553-2.547,1.274-2.547,3.211v6.223a1.14,1.14,0,0,0,1.271,1.049c.832-.11,1.276-.554,1.276-1.272Z" transform="translate(12.63 26.142)" fill="#30664d"></path><path id="Path_14707" data-name="Path 14707" d="M187.037,20.014v5.7h1.715v4.208h-1.715v17.2c0,1.715.386,2.545,1.715,2.545v4.206h-3.047a3.948,3.948,0,0,1-3.984-4.206V29.924H180.17V25.715h1.551v-5.7Z" transform="translate(5.615 28.626)" fill="#30664d"></path><path id="Path_14708" data-name="Path 14708" d="M200.595,17.01v9.575h.11a3.827,3.827,0,0,1,3.654-2.213c3.377,0,4.154,1.159,4.154,5.7V52.924h-5.37V30.847c0-1.273-.388-1.937-1.165-1.937-.883,0-1.383.222-1.383,1.937V52.924h-5.316V17.01Z" transform="translate(0.803 29.582)" fill="#30664d"></path><path id="Path_14709" data-name="Path 14709" d="M241.912,38.471v8.04c0,4.654-3.874,6.371-8.141,6.371s-8.14-1.717-8.14-6.371V22.981c0-4.657,3.874-6.371,8.14-6.371s8.141,1.715,8.141,6.371V29.6H235V24.109c0-.98-.148-2.3-1.226-2.3s-1.227,1.325-1.227,2.3V45.381c0,.982.149,2.3,1.227,2.3S235,46.363,235,45.381v-6.91Z" transform="translate(-8.864 29.71)" fill="#6dad3e"></path><path id="Path_14710" data-name="Path 14710" d="M268.209,49.584c0,4.214-3.433,6.322-7.356,6.322-3.97,0-7.3-2.107-7.3-6.322V33.507c0-4.215,3.334-6.322,7.3-6.322,3.923,0,7.356,2.107,7.356,6.322Zm-6.228-16.324c0-.684-.294-1.471-1.128-1.471s-1.078.787-1.078,1.471V49.828c0,.686.247,1.471,1.078,1.471s1.128-.784,1.128-1.471Z" transform="translate(-17.756 26.342)" fill="#6dad3e"></path><path id="Path_14711" data-name="Path 14711" d="M278.27,63.472h-.789v-.711h2.4v.711h-.789v4.045h-.818Z" transform="translate(-25.379 15.011)" fill="#30664d"></path><path id="Path_14712" data-name="Path 14712" d="M285.168,62.761v4.758h-.713V63.8h-.011l-.738,3.718h-.4l-.737-3.718h-.014v3.718h-.711V62.761h1.074l.578,2.78h.014l.581-2.78Z" transform="translate(-26.769 15.011)" fill="#30664d"></path></g></svg>