<svg xmlns="http://www.w3.org/2000/svg" width="173.815" height="49.691" viewBox="0 0 173.815 49.691">
  <g id="Tilia_Homes_Logo" transform="translate(0.03)">
    <path id="Path_2730" data-name="Path 2730" d="M129.584,54.49v5.519h-6.73V54.49H120.71v12.7h2.144V61.93h6.73v5.262h2.144V54.49Z" transform="translate(-39.078 -17.636)" fill="#fff"/>
    <path id="Path_2731" data-name="Path 2731" d="M180.453,54.49l-4.173,8.441-4.187-8.441H169.55v12.7h2.016V57.7l4.011,8.164h1.393L180.98,57.7l.02,9.489h1.975V54.49Z" transform="translate(-54.885 -17.636)" fill="#fff"/>
    <path id="Path_2732" data-name="Path 2732" d="M196.55,54.49v12.7h9.286V65.271h-7.142v-3.5h6.2V59.847h-6.2V56.418h6.926V54.49Z" transform="translate(-63.623 -17.636)" fill="#fff"/>
    <path id="Path_2733" data-name="Path 2733" d="M94.62,0V5.478h7.548V25.431h6.642V5.478h7.616V0Z" transform="translate(-30.634)" fill="#fff"/>
    <rect id="Rectangle_3206" data-name="Rectangle 3206" width="6.642" height="25.431" transform="translate(93.157)" fill="#fff"/>
    <path id="Path_2734" data-name="Path 2734" d="M160.75,0V25.431h17.416V19.77H167.392V0Z" transform="translate(-52.037)" fill="#fff"/>
    <rect id="Rectangle_3207" data-name="Rectangle 3207" width="6.642" height="25.431" transform="translate(133.13)" fill="#fff"/>
    <path id="Path_2735" data-name="Path 2735" d="M247.029,29.023l3.476,9.07h-7.034ZM243.8,22.26,232.88,47.691h6.845l1.779-4.5h10.991l1.738,4.5h7.075L250.648,22.26Z" transform="translate(-87.522 -22.24)" fill="#fff"/>
    <path id="Path_2736" data-name="Path 2736" d="M163.448,83.045a4.552,4.552,0,0,0,4.572,4.518,4.5,4.5,0,1,0-4.572-4.518m11.288,0a6.764,6.764,0,0,1-13.466,0,6.756,6.756,0,0,1,13.493,0" transform="translate(-64.345 -39.84)" fill="#fff"/>
    <path id="Path_2737" data-name="Path 2737" d="M239.238,78.605c-1.251,0-2.07.473-2.07,1.353,0,2.78,6.858,1.292,6.838,5.864,0,2.266-2,3.666-4.789,3.666a7.812,7.812,0,0,1-5.188-2.029l.927-1.853a6.689,6.689,0,0,0,4.3,1.853c1.481,0,2.374-.561,2.374-1.542,0-2.827-6.858-1.251-6.858-5.769,0-2.178,1.867-3.537,4.626-3.537a8.224,8.224,0,0,1,4.444,1.305l-.886,1.887a7.568,7.568,0,0,0-3.72-1.184" transform="translate(-87.894 -39.83)" fill="#fff"/>
    <path id="Path_2738" data-name="Path 2738" d="M55.73,59.94a4.234,4.234,0,1,0-3,1.249,4.247,4.247,0,0,0,3-1.249" transform="translate(-27.841 -32.088)" fill="#fff"/>
    <path id="Path_2739" data-name="Path 2739" d="M37.352,41.641a13.635,13.635,0,0,0,.183-19.411l-.453.081A8.536,8.536,0,0,0,31.433,35.75,8.542,8.542,0,0,0,17.974,41.4c0,.142-.041.284-.054.426h0a13.858,13.858,0,0,0,19.4-.2" transform="translate(-17.95 -22.23)" fill="#fff"/>
    <path id="Path_2740" data-name="Path 2740" d="M37.377,65.025A13.635,13.635,0,0,0,18,64.856l.081.453A8.536,8.536,0,0,0,31.52,70.957a8.482,8.482,0,0,0,5.614,13.412l.426.054h0a13.858,13.858,0,0,0-.183-19.4" transform="translate(-17.976 -34.745)" fill="#fff"/>
    <path id="Path_2741" data-name="Path 2741" d="M60.944,41.641a13.635,13.635,0,0,0,19.411.183l-.081-.453a8.536,8.536,0,0,0-13.439-5.648,8.535,8.535,0,0,0-5.648-13.439l-.426-.054h0a13.858,13.858,0,0,0,.2,19.4" transform="translate(-30.566 -22.23)" fill="#fff"/>
    <path id="Path_2742" data-name="Path 2742" d="M60.894,65.06a13.635,13.635,0,0,0-.183,19.411l.453-.081a8.536,8.536,0,0,0,5.648-13.439,8.542,8.542,0,0,0,13.439-5.634c0-.142.041-.284.054-.426h0a13.852,13.852,0,0,0-19.411.169" transform="translate(-30.515 -34.78)" fill="#fff"/>
  </g>
</svg>
